# xmcd
#
# Track frame offsets:
#	150
#	10444
#	32832
#	46857
#	58782
#	68232
#	77307
#	87957
#	95138
#	109163
#	115688
#	127257
#	137907
#
# Disc length: 1994 seconds
#
# Revision: 1
# Processed by: cddbd v1.5.2PL0 Copyright (c) Steve Scherf et al.
# Submitted via: audiograbber 1.83.01
#
DISCID=b207c80d
DTITLE=Hank Cash - II - CD 1
DYEAR=2011
DGENRE=Rock 'n Roll
TTITLE0=Kate
TTITLE1=One Piece at a Time
TTITLE2=Man of Constant Sorrow
TTITLE3=Wanted Man
TTITLE4=In the Jailhouse Now
TTITLE5=I Got Stripes
TTITLE6=Chain Gang
TTITLE7=Delia's Gone
TTITLE8=25 Minutes to Go
TTITLE9=Sugarfoot Rag
TTITLE10=The Night Hank Williams Came to Town
TTITLE11=Jambalaya
TTITLE12=Thirteen
EXTD=
EXTT0=
EXTT1=
EXTT2=
EXTT3=
EXTT4=
EXTT5=
EXTT6=
EXTT7=
EXTT8=
EXTT9=
EXTT10=
EXTT11=
EXTT12=
PLAYORDER=
